# xmcd
#
# Track frame offsets: 
#        150
#        15853
#        33227
#        49896
#        70713
#        88349
#        107301
#        126814
#        142047
#        160077
#        179881
#        197219
#        215187
#        232783
#        254840
#
# Disc length: 3610 seconds
#
# Revision: 1
# Processed by: cddbd v1.5.2PL0 Copyright (c) Steve Scherf et al.
# Submitted via: ExactAudioCopyFreeDBPlugin 1.0
#
DISCID=d70e180f
DTITLE=Fly To The Sky - NO LIMITATIONS Special Repackage Limited Editi
DTITLE=on
DYEAR=2007
DGENRE=R&B
TTITLE0=I'm Sorry
TTITLE1=3번째 날
TTITLE2=혼자하는 약속
TTITLE3=그래도 사랑입니다_Ft.헤리티지
TTITLE4=오늘도 이쁜걸
TTITLE5=MY ANGEL
TTITLE6=사랑해
TTITLE7=Let's Get It On
TTITLE8=가벼운 사랑_Ft.현무&TKO of Trespass
TTITLE9=남겨진 사람
TTITLE10=기억한줌
TTITLE11=미워해 줘
TTITLE12=가질 수 없어도
TTITLE13=결혼하지마
TTITLE14=MAN 2 MAM
EXTD=
EXTT0=
EXTT1=
EXTT2=
EXTT3=
EXTT4=
EXTT5=
EXTT6=
EXTT7=
EXTT8=
EXTT9=
EXTT10=
EXTT11=
EXTT12=
EXTT13=
EXTT14=
PLAYORDER=
